<?xml version="1.0" encoding="UTF-8"?>
<svg id="Layer_1" xmlns="http://www.w3.org/2000/svg" xmlns:xlink="http://www.w3.org/1999/xlink" version="1.1" viewBox="0 0 28 20">
  <!-- Generator: Adobe Illustrator 29.2.1, SVG Export Plug-In . SVG Version: 2.1.0 Build 116)  -->
  <defs>
    <style>
      .st0 {
        fill: #afafaf;
        fill-opacity: .9;
      }

      .st1 {
        fill-opacity: 0;
      }
    </style>
  </defs>
  <rect class="st1" width="28" height="20"/>
  <path class="st0" d="M3.7,20h20.3c2.5,0,3.7-1.2,3.7-3.6v-6.9c0-1.1-.1-1.6-.7-2.2l-4-5C21.6.5,20.9,0,18.9,0h-10.1C6.7,0,6.1.5,4.7,2.2L.7,7.2c-.5.6-.7,1.2-.7,2.2v6.9c0,2.4,1.2,3.6,3.7,3.6ZM2.5,8.8c-.4,0-.5-.3-.3-.6L6.6,2.7c.6-.7,1.2-1,2.1-1h10.4c.9,0,1.5.3,2.1,1l4.4,5.5c.2.2.1.6-.3.6h-7.7c-.6,0-.9.5-.9.9h0c0,1.4-1.1,2.8-2.7,2.8s-2.7-1.4-2.7-2.8h0c0-.5-.3-1-.9-1H2.5ZM3.7,18.1c-1.2,0-1.8-.6-1.8-1.8v-5.8h7.4c.3,2.2,2.1,3.8,4.5,3.8s4.2-1.6,4.5-3.8h7.4v5.8c0,1.2-.7,1.8-1.8,1.8H3.7Z"/>
</svg>