<?xml version="1.0" encoding="UTF-8"?>
<svg id="Layer_1" xmlns="http://www.w3.org/2000/svg" version="1.1" viewBox="0 0 700 200">
  <!-- Generator: Adobe Illustrator 29.1.0, SVG Export Plug-In . SVG Version: 2.1.0 Build 142)  -->
  <defs>
    <style>
      .st0 {
        fill: #66260f;
      }

      .st1 {
        fill: #692a14;
      }

      .st2 {
        fill: #692b15;
      }

      .st3 {
        fill: #672710;
      }

      .st4 {
        fill: #672711;
      }

      .st5 {
        fill: #662610;
      }
    </style>
  </defs>
  <path class="st4" d="M67.9,99.1h63.9c11.7,1.3,9,21.5,7.7,29.6-2.8,16.8-9.8,26.2-23.7,35.3-5.2,3.4-11.4,5.5-15.1,11-.7.2-4.3-3.9-5.2-4.7-6-4.8-13.2-7.5-19.5-13-13-11.6-17.3-31.6-15.5-48.5.5-4.3,3.4-8.1,7.4-9.6h0ZM69.8,107.1c-1.9.6-1.5,11.9-1.3,14.2,1.5,22.2,12,31.9,30.6,41.9.6.4,1.2.5,2,.3.5-.1,7.8-4.5,8.8-5.2,17.2-11,23.4-24.3,22.6-45,0-1.2-.5-5.2-1.2-5.8l-61.5-.4h0Z"/>
  <path class="st2" d="M67.5,78.2c-2.2-1.7-4.5-2.3-6.8-4.2-15.2-12.9-2.8-37.1,16.2-33.5,3.9-8.2,15.6-16.1,24.8-15.5,8.8.6,19.3,9,22.8,16.9,23.9-1.8,31.1,28.7,8.9,37.8v15.8l-48.5-5.8-.5-.7c14.1-2.1,28.6-.8,42.5,2v-10.5c-10.2-4.2-21.7-4.6-32.5-6.5-1.2-1,2.4-1.4,2.8-1.4,6.9-1.1,16.5-.8,23.3.6,2.5.5,8.6,3.2,10.5,2.8,1.4-.3,4.9-3.4,5.9-4.7,4.8-6.5,4.1-16.6-2-22-3.4-2.9-9.5-5.3-13.8-4.3l-4.2,5,1.4-6.8c-5.9-12.6-23.2-16.1-32.7-5.2-4.8,5.5-1.4,6.7-1.2,13-4.9-5.4-3.6-9.4-12.6-6.8-16.2,4.5-14.6,28.8,2.1,31.3v19.5h-6.5v-16.8h0Z"/>
  <path class="st0" d="M421.5,131v-43h29.8c.6,0,3.1,1.7,3.8,2.2,2.7,2.3,3.7,5.5,3.5,9-.1,1.9-2.1,5.7-1.9,6.4.2.7,2.6,2.6,3.4,4.2,2.4,4.9,2.4,14.5-2,18.4-.9.8-4.7,2.8-5.7,2.8h-30.8ZM445.8,97c-3.8-.6-9.2.5-13.2,0l-.4,6.4c.6,1,12.9.8,14.4-.2s1.3-5.9-.7-6.2ZM432.5,122h16.2c2,0,2.7-9-.5-9h-15.8v9Z"/>
  <path class="st3" d="M562.4,87.2c17.2-.7,25.5,8.5,24.1,25.6-1.3,16-13.7,21-28.2,18.7-9.3-1.5-15.1-6.8-16.2-16.3-1.8-15.7,3-27.3,20.3-28h0ZM560.9,96.6c-8,1.3-8.8,11.4-7.6,17.9,1.9,10.3,17.7,11,21.2,2.1,4.1-10.5-.8-22.2-13.5-20h0Z"/>
  <path class="st3" d="M257.9,87.2c15.5-.6,23.8,6.5,23.9,22.2,0,14.8-7,22.6-22.1,22.7-14.1,0-22.4-6.9-22.8-21.3-.4-14.4,6.2-23.1,20.9-23.6h0ZM256.4,96.6c-10.6,1.8-10.8,21.4-2.7,25,3.7,1.6,11.1,1.5,14.1-1.6s3.5-11.4,2.5-15.5c-1.6-6.9-7.3-9-13.9-7.9h0Z"/>
  <path class="st3" d="M499.9,87.2c13.6-.5,22.9,4.8,24.1,19.1,1,12.1-2.9,22.8-15.9,25.1-12.8,2.3-26.7-1.6-28.5-16.3-1.9-15.7,3.1-27.3,20.3-28ZM498.4,96.6c-7.8,1.3-8.5,10.3-7.9,16.6.8,7.9,7.9,11,15,9,5.5-1.5,7.2-5.7,7.5-11,.6-10.2-3.7-16.5-14.6-14.7h0Z"/>
  <path class="st5" d="M320.4,87.2c18.5-.7,26.1,10.4,23.5,28-2.2,15.7-17.9,19.1-31.3,15.4-13-3.5-15-18.9-11.9-30.1,2.6-9.5,10.3-13,19.6-13.4h0ZM318.4,96.6c-9.1,1.5-10.1,18-4.6,23.4,3.7,3.6,13.3,3.7,16.8-.3s3.6-14.4.9-18.9c-2.5-4.3-8.6-5-13.1-4.2h0Z"/>
  <path class="st4" d="M615,101.5c.9.2,1-.4,1.5-.8,2.2-1.7,13.3-13.2,14.2-13.2h12.2l-.5,1.8-17.5,17.5,20.5,24.2h-13.2l-14.2-16.3c-.8-1-3,1.2-3,1.5v14.8h-11v-43c.5.2,1.1-.5,1.2-.5h9l.8.8v13.2h0Z"/>
  <path class="st0" d="M373,88v14l14.8-14h13.2l-18,18.8,20,24.2h-12.8l-14.7-16.8c-.6-.8-2.5,1.4-2.5,1.5v15.3h-11v-43h11Z"/>
  <path class="st4" d="M208.5,116h10.2c1.6,0-.1,6.1-.5,7-4.8,11.3-29.5,11.4-37.3,3.3-7.1-7.4-7-26.8.5-34s28.7-7,35.2,2.3c.8,1.1,4.3,9,2,9h-9.5c-1.3-1.8-1.2-3.5-3.1-4.9-3.9-2.9-12.5-2.7-16.2.7-4.1,3.7-4,15.6-.7,19.8,4.2,5.5,18.3,5,19.3-3h0Z"/>
  <path class="st1" d="M108,132.5c6.4-.1,3.6,7,1.8,10.5-5.7,10.7-18.9,12.8-20.3-1.8-.7-7.8,1.7-19.7,8.8-24.2,3.3-2.1,13.2-4.2,13.7,1.2s-2.1,2.6-4.7,2.2c-8.1-1-12.2,7.3-12.8,14.2-1.9,21.1,12.7,11.3,13.5-2.2h0Z"/>
</svg>