<?xml version="1.0" encoding="UTF-8"?>
<svg id="Layer_1" data-name="Layer 1" xmlns="http://www.w3.org/2000/svg" viewBox="0 0 700 200">
  <defs>
    <style>
      .cls-1 {
        fill: #66260f;
      }

      .cls-2 {
        fill: #fcfbfb;
      }

      .cls-3 {
        fill: #fdfcfc;
      }

      .cls-4 {
        fill: #fefefe;
      }

      .cls-5 {
        fill: #692a14;
      }

      .cls-6 {
        fill: #692b15;
      }

      .cls-7 {
        fill: #faf8f8;
      }

      .cls-8 {
        fill: #672710;
      }

      .cls-9 {
        fill: #672711;
      }

      .cls-10 {
        fill: #662610;
      }
    </style>
  </defs>
  <path class="cls-4" d="M700,0v200H0V0h700ZM67.5,78.25v16.75h6.5v-19.5c-16.68-2.55-18.32-26.82-2.1-31.35,8.96-2.51,7.71,1.43,12.6,6.85-.17-6.31-3.56-7.46,1.25-13.01,9.45-10.88,26.84-7.37,32.7,5.23l-1.44,6.77,4.21-5.03c4.26-1.01,10.44,1.34,13.79,4.28,6.14,5.39,6.8,15.54,1.99,22-.93,1.25-4.42,4.37-5.87,4.67-1.89.39-7.99-2.26-10.52-2.78-6.83-1.39-16.43-1.69-23.3-.58-.45.07-4,.46-2.81,1.44,10.85,1.92,22.25,2.26,32.5,6.5v10.5c-13.93-2.81-28.38-4.09-42.5-1.99l.5.74,48.5,5.75v-15.75c22.21-9.1,14.99-39.65-8.92-37.83-3.47-7.89-14.05-16.37-22.81-16.93-9.26-.6-20.91,7.27-24.82,15.48-18.96-3.59-31.46,20.65-16.22,33.54,2.26,1.91,4.52,2.52,6.76,4.24ZM208.5,116c-.99,8.03-15.03,8.48-19.26,3.01-3.25-4.19-3.34-16.07.74-19.79,3.7-3.38,12.29-3.61,16.2-.65,1.92,1.45,1.77,3.13,3.08,4.92h9.5c2.23,0-1.29-7.91-2.03-8.97-6.5-9.25-27.48-9.74-35.23-2.29s-7.63,26.63-.5,34.03c7.8,8.09,32.49,8.08,37.26-3.26.39-.92,2.15-7,.5-7h-10.25ZM257.9,87.15c-14.72.58-21.3,9.27-20.92,23.63.38,14.38,8.62,21.33,22.77,21.27,15.02-.07,22.14-7.93,22.06-22.71-.09-15.65-8.45-22.79-23.91-22.18ZM320.4,87.15c-9.37.37-17.02,3.82-19.64,13.36-3.1,11.28-1.12,26.62,11.85,30.13,13.43,3.64,29.1.3,31.34-15.44,2.51-17.67-5.09-28.78-23.55-28.05ZM499.9,87.15c-17.14.67-22.14,12.26-20.26,27.96,1.76,14.69,15.64,18.56,28.48,16.26,12.95-2.31,16.84-13.06,15.87-25.11-1.15-14.34-10.5-19.64-24.09-19.11ZM562.4,87.15c-17.23.68-22.04,12.24-20.26,27.96,1.09,9.58,6.91,14.84,16.17,16.33,14.53,2.33,26.9-2.72,28.18-18.7,1.37-17.06-6.9-26.27-24.09-25.59ZM615,101.5v-13.25l-.75-.75h-9c-.17,0-.76.66-1.25.5v43h11v-14.75c0-.3,2.25-2.52,3.01-1.52l14.24,16.27h13.25l-20.52-24.25,17.54-17.48.48-1.77h-12.25c-.97,0-12.07,11.58-14.25,13.25-.5.39-.63.96-1.5.75ZM373,88h-11v43h11v-15.25c0-.15,1.89-2.3,2.51-1.52l14.74,16.77h12.75l-20.02-24.25,18.02-18.75h-13.25l-14.75,14v-14ZM421.5,131h30.75c1.05,0,4.82-1.97,5.72-2.78,4.34-3.87,4.37-13.47,1.97-18.41-.77-1.57-3.19-3.46-3.37-4.17-.19-.75,1.81-4.52,1.93-6.41.24-3.54-.84-6.7-3.5-8.99-.64-.55-3.12-2.25-3.75-2.25h-29.75v43ZM67.86,99.11c-4,1.58-6.9,5.3-7.37,9.63-1.83,16.88,2.52,36.92,15.5,48.51,6.22,5.56,13.44,8.25,19.47,13.03.98.78,4.5,4.84,5.24,4.69,3.65-5.5,9.86-7.53,15.07-10.96,13.89-9.16,20.91-18.56,23.67-35.33,1.32-8.04,4.01-28.27-7.67-29.69l-63.9.13Z"/>
  <path class="cls-9" d="M67.86,99.11l63.9-.13c11.68,1.43,8.99,21.65,7.67,29.69-2.76,16.77-9.77,26.17-23.67,35.33-5.21,3.43-11.42,5.46-15.07,10.96-.74.16-4.26-3.91-5.24-4.69-6.02-4.78-13.24-7.48-19.47-13.03-12.98-11.59-17.33-31.63-15.5-48.51.47-4.33,3.36-8.06,7.37-9.63ZM69.82,107.07c-1.89.64-1.46,11.87-1.31,14.18,1.46,22.23,11.97,31.94,30.64,41.87.64.39,1.25.48,1.98.3.5-.12,7.77-4.52,8.84-5.2,17.15-10.98,23.39-24.29,22.56-44.98-.05-1.18-.54-5.23-1.22-5.78l-61.48-.38Z"/>
  <path class="cls-6" d="M67.5,78.25c-2.24-1.72-4.5-2.33-6.76-4.24-15.24-12.89-2.75-37.13,16.22-33.54,3.9-8.21,15.56-16.08,24.82-15.48,8.76.56,19.34,9.05,22.81,16.93,23.91-1.82,31.13,28.73,8.92,37.83v15.75l-48.5-5.75-.5-.74c14.11-2.1,28.57-.81,42.5,1.99v-10.5c-10.25-4.24-21.65-4.59-32.5-6.5-1.18-.98,2.36-1.36,2.81-1.44,6.87-1.11,16.47-.81,23.3.58,2.53.51,8.63,3.17,10.52,2.78,1.45-.3,4.94-3.42,5.87-4.67,4.81-6.46,4.15-16.62-1.99-22-3.35-2.94-9.53-5.29-13.79-4.28l-4.21,5.03,1.44-6.77c-5.86-12.6-23.25-16.11-32.7-5.23-4.81,5.54-1.42,6.7-1.25,13.01-4.89-5.43-3.64-9.36-12.6-6.85-16.21,4.53-14.58,28.8,2.1,31.35v19.5h-6.5v-16.75Z"/>
  <path class="cls-1" d="M421.5,131v-43h29.75c.63,0,3.11,1.69,3.75,2.25,2.66,2.29,3.73,5.46,3.5,8.99-.13,1.89-2.13,5.65-1.93,6.41.18.7,2.61,2.6,3.37,4.17,2.41,4.94,2.37,14.53-1.97,18.41-.9.81-4.67,2.78-5.72,2.78h-30.75ZM445.75,97c-3.82-.64-9.24.48-13.25,0l-.43,6.43c.61.97,12.85.84,14.41-.2s1.31-5.88-.73-6.23ZM432.5,122h16.25c2.04,0,2.67-9-.5-9h-15.75v9Z"/>
  <path class="cls-8" d="M562.4,87.15c17.19-.68,25.46,8.53,24.09,25.59-1.28,15.97-13.65,21.03-28.18,18.7-9.26-1.49-15.09-6.75-16.17-16.33-1.78-15.72,3.03-27.28,20.26-27.96ZM560.87,96.62c-8.05,1.35-8.81,11.45-7.64,17.9,1.86,10.27,17.73,11,21.17,2.12,4.08-10.52-.78-22.17-13.53-20.03Z"/>
  <path class="cls-8" d="M257.9,87.15c15.46-.61,23.83,6.53,23.91,22.18.08,14.78-7.04,22.64-22.06,22.71-14.15.06-22.39-6.88-22.77-21.27-.38-14.36,6.2-23.05,20.92-23.63ZM256.37,96.62c-10.62,1.79-10.8,21.42-2.71,24.97,3.74,1.64,11.05,1.51,14.09-1.59s3.52-11.37,2.52-15.53c-1.65-6.87-7.33-8.96-13.91-7.86Z"/>
  <path class="cls-8" d="M499.9,87.15c13.6-.53,22.94,4.77,24.09,19.11.97,12.06-2.92,22.8-15.87,25.11-12.84,2.29-26.73-1.57-28.48-16.26-1.88-15.7,3.12-27.29,20.26-27.96ZM498.37,96.62c-7.83,1.31-8.5,10.26-7.86,16.63.79,7.91,7.87,10.96,15.02,9.03,5.46-1.48,7.2-5.74,7.5-11,.59-10.2-3.71-16.49-14.65-14.65Z"/>
  <path class="cls-10" d="M320.4,87.15c18.46-.73,26.06,10.38,23.55,28.05-2.24,15.74-17.91,19.08-31.34,15.44-12.98-3.51-14.96-18.86-11.85-30.13,2.62-9.53,10.27-12.99,19.64-13.36ZM318.37,96.62c-9.13,1.54-10.12,18.01-4.64,23.4,3.7,3.64,13.29,3.66,16.78-.26s3.6-14.42.92-18.93c-2.53-4.27-8.58-4.96-13.06-4.2Z"/>
  <path class="cls-9" d="M615,101.5c.87.22,1-.36,1.5-.75,2.18-1.67,13.27-13.25,14.25-13.25h12.25l-.48,1.77-17.54,17.48,20.52,24.25h-13.25l-14.24-16.27c-.76-1-3.01,1.22-3.01,1.52v14.75h-11v-43c.49.16,1.08-.5,1.25-.5h9l.75.75v13.25Z"/>
  <path class="cls-1" d="M373,88v14l14.75-14h13.25l-18.02,18.75,20.02,24.25h-12.75l-14.74-16.77c-.62-.78-2.51,1.36-2.51,1.52v15.25h-11v-43h11Z"/>
  <path class="cls-9" d="M208.5,116h10.25c1.65,0-.11,6.08-.5,7-4.77,11.34-29.47,11.35-37.26,3.26-7.13-7.39-6.97-26.84.5-34.03s28.73-6.96,35.23,2.29c.75,1.06,4.26,8.97,2.03,8.97h-9.5c-1.31-1.79-1.16-3.48-3.08-4.92-3.91-2.95-12.49-2.73-16.2.65-4.08,3.72-3.99,15.59-.74,19.79,4.24,5.47,18.27,5.02,19.26-3.01Z"/>
  <path class="cls-2" d="M69.82,107.07l61.48.38c.68.54,1.17,4.6,1.22,5.78.83,20.69-5.41,34-22.56,44.98-1.07.69-8.34,5.08-8.84,5.2-.73.18-1.34.09-1.98-.3-18.66-9.93-29.18-19.64-30.64-41.87-.15-2.3-.58-13.54,1.31-14.18ZM108.02,132.52c-.81,13.48-15.39,23.34-13.54,2.21.61-6.9,4.73-15.26,12.79-14.25,2.65.33,5.25,3.06,4.74-2.24s-10.39-3.26-13.68-1.17c-7.1,4.51-9.53,16.32-8.82,24.16,1.32,14.58,14.55,12.52,20.26,1.78,1.87-3.51,4.64-10.65-1.75-10.5Z"/>
  <path class="cls-3" d="M432.5,122v-9h15.75c3.17,0,2.54,9,.5,9h-16.25Z"/>
  <path class="cls-7" d="M445.75,97c2.04.34,2.36,5.14.73,6.23s-13.8,1.17-14.41.2l.43-6.43c4.01.48,9.43-.64,13.25,0Z"/>
  <path class="cls-2" d="M560.87,96.62c12.75-2.14,17.61,9.51,13.53,20.03-3.44,8.88-19.31,8.15-21.17-2.12-1.17-6.46-.41-16.55,7.64-17.9Z"/>
  <path class="cls-2" d="M256.37,96.62c6.57-1.11,12.26.98,13.91,7.86,1,4.15.63,12.31-2.52,15.53s-10.35,3.23-14.09,1.59c-8.08-3.55-7.91-23.19,2.71-24.97Z"/>
  <path class="cls-2" d="M498.37,96.62c10.94-1.83,15.24,4.46,14.65,14.65-.3,5.26-2.04,9.52-7.5,11-7.15,1.94-14.22-1.12-15.02-9.03-.64-6.36.03-15.31,7.86-16.63Z"/>
  <path class="cls-2" d="M318.37,96.62c4.48-.76,10.52-.07,13.06,4.2,2.68,4.51,2.68,14.88-.92,18.93s-13.08,3.9-16.78.26c-5.48-5.39-4.5-21.86,4.64-23.4Z"/>
  <path class="cls-5" d="M108.02,132.52c6.4-.15,3.62,6.99,1.75,10.5-5.71,10.74-18.94,12.8-20.26-1.78-.71-7.84,1.73-19.65,8.82-24.16,3.29-2.09,13.16-4.25,13.68,1.17s-2.09,2.57-4.74,2.24c-8.06-1.01-12.18,7.34-12.79,14.25-1.86,21.12,12.72,11.26,13.54-2.21Z"/>
</svg>