<?xml version="1.0" encoding="UTF-8"?>
<svg xmlns="http://www.w3.org/2000/svg" xmlns:xlink="http://www.w3.org/1999/xlink" viewBox="0 0 1000 941.31">
  <defs>
    <style>
      .cls-1 {
        fill: none;
      }

      .cls-2 {
        fill: #ffd375;
      }

      .cls-3 {
        fill: #292222;
      }

      .cls-4 {
        mix-blend-mode: multiply;
        opacity: .7;
      }

      .cls-5 {
        fill: #f08b60;
      }

      .cls-6 {
        isolation: isolate;
      }

      .cls-7 {
        fill: #c0def5;
      }

      .cls-8 {
        clip-path: url(#clippath-1);
      }

      .cls-9 {
        fill: #fff;
      }

      .cls-10 {
        fill: #fcaf17;
      }

      .cls-11 {
        fill: #ef8557;
      }

      .cls-12 {
        fill: #f6bb97;
      }

      .cls-13 {
        fill: #fbe4d2;
      }

      .cls-14 {
        fill: #e67148;
      }

      .cls-15 {
        clip-path: url(#clippath);
      }

      .cls-16 {
        fill: #e69b7a;
      }
    </style>
    <clipPath id="clippath">
      <rect class="cls-1" width="1000" height="933.93"/>
    </clipPath>
    <clipPath id="clippath-1">
      <path class="cls-10" d="M414.43,582.49c7.13-9.18,14.26-18.36,21.39-27.54,3.17-4.08,6.51-8.3,11.17-10.53,5.83-2.79,12.67-1.97,19.07-1.02,24.17,3.62,81.9,16.94,105.61,22.89-4.86,8.69-43.75,9.18-52.02,14.7-15.02,10.02-34.38,4.64-51.26,5.18-18.18.59-35.89-1.67-53.95-3.69Z"/>
    </clipPath>
  </defs>
  <g class="cls-6">
    <g id="Layer_1" data-name="Layer 1">
      <g>
        <g class="cls-15">
          <g>
            <g>
              <path class="cls-12" d="M539.83,443.67c-3.77-21.3,7.48-41.93,31.14-47.01,26.86-5.77,91.04,18.57,70.03,61.37-20.48,41.72-95.72,16.44-101.17-14.36Z"/>
              <path class="cls-12" d="M543.81,528.39c16.43,43.15,36.18,88.46,58.58,128.24,10.27,18.68,25.98,41.59,38.81,53.41-12.01-3.51-31.48,6.39-34.95,18.58-.24,1.49.56-.44.89-3.34,1.47-13.32-.63-26.98-2.71-42.09-10.07-72.57-18.01-78.66-40.84-219.92-5.49-33.96,46.61-52,56.71-19.56,18.45,59.23,55.05,128.13,75.92,191.61,13.02,39.61,16.59,77.48,16.42,121.6-.06,16.68-1.83,27.52-5.13,40.53-10.95,43.1-48.71,37.02-86.26,25.58-90.75-27.64-161.9-171.65-194.85-250.56-27.04-79.56,85.31-121.88,117.42-44.08Z"/>
              <path class="cls-13" d="M389.83,579.07s-5.2,71.95,90.17,167.18c0,0,73.04-86.22,120.51-89.64,0,0-20.62-97.77-31.7-136.56-13.87-48.55-91.01-86.22-133.33-16.93-7.57,12.39-42.76,57.73-45.65,75.96Z"/>
              <path class="cls-16" d="M612.59,724.36c-1.11,0-2.16-.65-2.62-1.73-6.23-14.53-21.12-110.51-21.75-114.59-.24-1.56.83-3.01,2.38-3.25,1.55-.23,3.01.83,3.25,2.38.15.99,15.41,99.34,21.35,113.22.62,1.45-.05,3.12-1.5,3.74-.37.16-.75.23-1.12.23Z"/>
            </g>
            <g>
              <path class="cls-13" d="M173.72,933.93c5.08-77.45,6.92-166.43-1.7-243.89-9.97-89.62-5.47-215.42,20.52-223.73,75.14-24.03,203.33-10.65,263.89-10.1,112.16.85,118.36,100.79,122.15,135.78,7.53,69.59,18.22,292.26,28.55,339.47"/>
              <path class="cls-9" d="M397.99,536.66c-.72,0-1.44,0-2.17-.02-93.85-1.9-103.84-88.78-103.93-89.66-.12-1.17.73-2.22,1.91-2.34,1.21-.08,2.22.73,2.35,1.91.36,3.43,9.75,84,99.77,85.82,20.6.45,35.85-5.3,45.38-17,17.82-21.89,9.87-57.85,9.79-58.21-.26-1.15.46-2.3,1.61-2.56,1.14-.28,2.3.46,2.56,1.6.36,1.56,8.5,38.33-10.63,61.85-10.05,12.36-25.73,18.61-46.62,18.61Z"/>
              <path class="cls-12" d="M451.73,456.14s-97.55-14.94-157.72-4.13c0,0,5.76,21.5,23.77,42.99,22.04,26.29,49.3,36.76,75.88,36.76,66.37-.01,61.34-51.95,58.06-75.62Z"/>
            </g>
            <g>
              <path class="cls-10" d="M485.77,577.48c17.92-12.09,35.84-24.18,53.75-36.27,4.07-2.74,8.36-5.57,13.24-6.08,11.61-1.2,19.94,10.48,30.1,16.23,6.74,3.81,14.6,5.03,21.91,7.61,7.31,2.58,14.67,7.23,16.93,14.64-38.61,17.93-82.92,23.3-124.69,15.12l-11.24-11.26Z"/>
              <g>
                <path class="cls-10" d="M414.43,582.49c7.13-9.18,14.26-18.36,21.39-27.54,3.17-4.08,6.51-8.3,11.17-10.53,5.83-2.79,12.67-1.97,19.07-1.02,24.17,3.62,81.9,16.94,105.61,22.89-4.86,8.69-43.75,9.18-52.02,14.7-15.02,10.02-34.38,4.64-51.26,5.18-18.18.59-35.89-1.67-53.95-3.69Z"/>
                <g class="cls-8">
                  <path class="cls-10" d="M582.31,572.77c-.13,0-.27-.02-.4-.06l-66.79-19.53c-.75-.22-1.19-1.01-.97-1.77.22-.75,1-1.19,1.77-.97l66.79,19.53c.75.22,1.19,1.01.97,1.77-.18.62-.75,1.02-1.37,1.02Z"/>
                </g>
              </g>
              <path class="cls-14" d="M581.53,554.42c1.18-.71,3.91-.07,4.22-1.41-3.59-3.33-8.33-9.83-12.29-12.71-11.8-8.6-28.26-7.57-39.09,2.22-2.73,2.47-6.39,5.13-8.62,7.74-.69.8-1.31,2.07-.57,2.82.63.65,1.71.32,2.54-.05,3.07-1.37,6.14-2.74,9.21-4.1.13,1.92,1.96,3.56,3.88,3.47,1.92-.09,3.6-1.88,3.55-3.81.59,2.73,4.56,3.29,6.89,1.75,2.33-1.54,3.55-4.23,5.14-6.53,1.59-2.29,4.16-4.43,6.89-3.84,2.57.56,4.01,3.2,5.3,5.49,3.2,5.68,6.47,15.56,12.57,14.84.98-2.48,2.05-3.82.37-5.89Z"/>
              <path class="cls-14" d="M440.39,554.92c1.76-1.77,3.73-3.64,6.21-3.85,2.48-.21,1.67,2.8,4.1,4.59,5.17.18,4.89-4.97,8.3-5.58,3.4-.6,6.9-.11,10.31.45,13.79,2.26,27.66,5.71,39.54,13.07,1.85.76,3.37-2.14,2.42-3.91-.95-1.76-3-2.54-4.71-3.57-1.71-1.03-3.35-2.97-2.65-4.84-9.61-4-19.32-8.02-29.57-9.85-10.25-1.83-21.22-1.33-30.49,3.42-5.55,2.84-19.26,14.25-15.24,21.51,4.33-2.95,8.05-7.67,11.78-11.43Z"/>
              <g>
                <path class="cls-9" d="M638.71,569.01l-256.08,1.58s12.16,36.09,128.26,35.37c102.83-.63,123.9-26.54,127.82-36.95Z"/>
                <rect class="cls-9" x="445.39" y="600.65" width="130.97" height="5.06" transform="translate(1025.46 1203.19) rotate(179.65)"/>
                <path class="cls-7" d="M382.52,570.62c0,.62,57.43.74,128.27.3,21.73-.13,42.13-.33,60.1-.51,8.59-.12,16.64-.17,23.88-.28,27.1-.37,44-.75,44-1.09,0-.34-15.57-.59-40.25-.57-6.98-.02-14.76-.05-23.08-.06-19.05.05-41.05.12-64.67.26-70.84.44-128.26,1.27-128.25,1.95Z"/>
              </g>
            </g>
            <g>
              <path class="cls-12" d="M324.24,354.65s-9,69.55-17.19,114.46c0,0,76.75,36.84,121.31,23.25l6.67-107.57-110.79-30.13Z"/>
              <path class="cls-16" d="M430.74,441.63c6.9-46.29-45.22-42.36-76.42-63.75,0,0-15.57-155.42-13.24-14.32,0,0,7.73,63.29,51.93,75.17,30.62,8.23,37.73,2.9,37.73,2.9Z"/>
              <path class="cls-12" d="M506.54,248.13c2.53,50.34-.06,86.31-15.55,145.09-5.07,19.22-11.71,36.2-40.39,40.5-33.94,5.09-77.3-8.16-101.64-33.42-17.75-18.41-23.23-44.36-38.56-75.39-33.28-67.34,2.7-142.05,59.93-157.39,57.22-15.33,132.47,6.13,136.22,80.61Z"/>
              <path class="cls-3" d="M361.75,344.55c-1.37-11.26-1.64-28.5-1.1-36.77,1.38-20.99,10.32-38.49,31.69-44.63,15.63-4.49,48.94,6.23,75.22,6.07,4.25-.03,8.93.17,12.47-2.03-2.47-1.51-4.95-3.02-7.42-4.53,7.28-.44,23.67,1.73,39.79-10.68,14.91-11.49,37.32,10.22,37.32,10.22,2.13-37.4-45.96-100.52-122.99-110.07-49.73-6.17-81.61,1.07-95.56,9.87-14.78,9.33-32.47,27.3-23.23,42.15-26.36,17.05-38.67,49.9-31.71,80.46,4.85,21.3,17.26,62.04,46.16,78.69,10.27-18.45,40.64-8.17,39.36-18.76Z"/>
              <path class="cls-3" d="M383.38,257.89c33.36-1.04,66.78,15.26,86.51,42.17,6.89-4.15,8.37-15.02,2.84-20.86,10.04-.97,19.25,4.25,26.48,11.27,7.24,7.02,12.83,12.79,12.17,22.85,7.14-10.12,6.82-15.53,4.36-27.8,8.83,5.68,22.06,9.86,27.04,19.1,7.4-29.88-4.02-61.68-19.88-87.13-15.87-25.46-33.1-39.36-62.93-42.53-29.83-3.17-60.28,5.87-85.36,22.33-6.21,4.08-12.28,8.77-16.06,15.17-3.77,6.4-4.82,14.86-.92,21.18l25.75,24.24Z"/>
              <path class="cls-12" d="M303.55,330.95c-.2,8.27,2.91,16.34,7.09,23.56,3.48,6,7.91,11.73,14.02,15.17,6.11,3.44,14.18,4.15,20.03.35,8.54-5.54,9.09-17.6,7.17-27.48-2.19-11.27-6.03-29.11-18.27-33.99-15.62-6.22-29.69,7.86-30.04,22.39Z"/>
              <g>
                <path class="cls-3" d="M423.05,312.75c-1,7.05-5.92,12.19-10.98,11.47-5.06-.72-8.35-7.02-7.35-14.08,1-7.05,5.92-12.19,10.98-11.47,5.06.72,8.35,7.02,7.35,14.08Z"/>
                <path class="cls-3" d="M493.26,323c-1,7.05-5.92,12.19-10.98,11.47-5.06-.72-8.35-7.02-7.35-14.08,1-7.05,5.92-12.19,10.98-11.47,5.06.72,8.35,7.02,7.35,14.08Z"/>
                <path class="cls-3" d="M427.75,295c-.79,0-1.59-.22-2.3-.67-9.87-6.32-18.11-6.14-29-3.71-2.32.51-4.59-.94-5.11-3.24-.51-2.3.94-4.59,3.24-5.1,12.41-2.78,23.19-3.01,35.48,4.85,1.99,1.27,2.57,3.92,1.3,5.91-.82,1.28-2.2,1.97-3.6,1.97Z"/>
                <path class="cls-3" d="M497.89,304.51c-.83,0-1.67-.24-2.41-.74-5.96-4.07-13.54-4.68-22.51-1.79-2.24.73-4.65-.52-5.38-2.77-.72-2.25.52-4.66,2.77-5.38,11.46-3.67,21.82-2.68,29.95,2.87,1.95,1.33,2.45,3.99,1.12,5.94-.83,1.21-2.17,1.87-3.53,1.87Z"/>
                <path class="cls-16" d="M448.36,364.36c-2.15,0-4.47-.35-6.92-1.04-1.51-.43-2.39-2-1.96-3.52.43-1.51,1.99-2.41,3.52-1.96,3.35.95,8.03,1.56,11.24-.96,3.52-2.76,1.83-9.83.51-13.79-.86-2.59-1.68-4.61-2.38-6.35-2.25-5.55-3.6-8.91-1.52-18.02.35-1.54,1.89-2.51,3.41-2.14,1.54.35,2.49,1.88,2.14,3.41-1.68,7.36-.83,9.48,1.24,14.61.74,1.83,1.6,3.95,2.51,6.69,3.96,11.92.88,17.5-2.41,20.08-2.54,2-5.73,3-9.39,3Z"/>
                <path class="cls-9" d="M413.89,379.54c3.72-4.52,37.12,5.24,40.09,10.55,1.91,3.42-7.18,14.7-23.3,9.89-9.21-2.75-20.51-15.92-16.79-20.44Z"/>
              </g>
              <path class="cls-3" d="M310.71,209.53c-2.44,0-5-.79-7.24-2.32-3.12-2.13-5.2-5.26-6.66-7.76-5.95-10.13-8.91-21.65-8.55-33.31.05-1.58,1.35-2.94,2.94-2.76,1.57.05,2.81,1.36,2.76,2.94-.33,10.43,2.43,21.17,7.76,30.24,1.23,2.1,2.79,4.45,4.95,5.93,1.44.98,3.08,1.45,4.53,1.31.18-1.07.96-1.99,2.08-2.29.99-.26,2.58.2,3.3.95.92.95,1.24,2.31.86,3.55-.36,1.17-1.22,2.07-2.57,2.66-1.29.57-2.71.85-4.16.85Z"/>
            </g>
          </g>
          <g>
            <path class="cls-14" d="M988.47,867.81c-24.07,38.38-66.09,62.69-112.29,65.01-132.52,6.66-427.54,16.64-762.93-3.19-39.5-2.33-76.19-20.66-100.95-50.65l-7.06-8.55,983.22-2.63Z"/>
            <path class="cls-5" d="M3.73,868.52c0,13.56,220.53,24.56,492.56,24.56s492.56-11,492.56-24.56-220.53-24.56-492.56-24.56S3.73,854.96,3.73,868.52Z"/>
          </g>
          <g>
            <path class="cls-2" d="M876,809.85c-6.01,0-15.98-5.62-17.1-6.26-1.36-.78-1.83-2.53-1.05-3.89.78-1.37,2.52-1.84,3.89-1.05,3.72,2.13,10.87,5.5,14.26,5.5,12.91-.1,13.04-8.96,13.09-11.87.05-3.38-.97-6.01-3.02-7.81-2.38-2.09-6.09-2.95-10.15-2.35-5.35.78-6.7,3.11-6.76,3.2-.74,1.34-2.43,1.89-3.8,1.22-1.36-.69-1.97-2.28-1.34-3.67.24-.52,2.57-5.16,11.08-6.39,5.71-.83,11.1.52,14.73,3.71,3.32,2.91,5.03,7.12,4.96,12.18-.16,11.03-6.98,17.4-18.7,17.49h-.08Z"/>
            <path class="cls-2" d="M872.55,766.98s5.6,29.45-2.46,57.29c-8.06,27.85-25.35,42.78-59.78,42.55-17.29-.12-46.7-4.71-59.22-39.41-8.9-24.68-2.15-61.28-2.15-61.28.03-4.17,121.99-3.33,123.61.85Z"/>
            <path class="cls-10" d="M870.39,767.04c-.02.77-2.73,1.27-7.36,1.53-6.57.97-17.56,1.44-30.65,1.66-1.35-.04-2.7.12-4.04.08-4.04.08-8.28.16-12.71.04-1.54.15-3.27.1-4.81.06-32.91-.33-59.8-2.22-59.75-4.34.06-2.31,26.86-3.88,59.77-3.55l4.04.11c3.85-.09,7.51.01,10.97.11l2.89.08c15,.41,27.5,1.14,34.59,2.11,4.6.7,7.09,1.35,7.06,2.12Z"/>
          </g>
        </g>
        <g>
          <path class="cls-12" d="M485.55,680.61c-26.95,47.15-87.47,119.49-150.03,161.99-42.86,29.12-82.63,61.18-121.09,18.47-14.83-16.47-22.46-25.34-32.84-55.41-21.03-60.91-28.64-174.89-36.08-229.82-6.3-102.16,134.05-108.03,148.43-6.63.81,37.55-3.07,93.46-1.63,129.6,1.1,23.34,1.84,38.2,8.79,53.69.25.66.94,1.42.88,1.99-4.77-5.44-24.17-7.52-22.48-7.49,9.22-.57,18.03-4.43,27.94-8.99,36.56-18.47,34.35-21.25,68.63-45.86,14.47-10.39,49.79-33.09,61.51-52.01,24.06-38.83,70.1.91,47.97,40.47Z"/>
          <path class="cls-13" d="M312.95,683.2c-49.91-10.22-100.51-.33-178.99,24.73,0,0-24.37-94.43,2.47-192.19,14.93-54.37,68.81-57.32,105.41-43.17,35.18,13.61,34.85,13.79,54.7,90.22,8.23,31.69,16.42,120.4,16.42,120.4Z"/>
          <path class="cls-12" d="M421.44,688.4s56.58,22.14,85.63-11.26c29.05-33.4,34.27-56.2,11.56-78.48-22.71-22.28-84.17-11.27-100.36,60.33-3.51,15.55,3.17,29.41,3.17,29.41Z"/>
          <g class="cls-4">
            <path class="cls-13" d="M299,682.58c-1.51,0-2.78-1.19-2.85-2.72-.07-1.57,1.14-2.91,2.72-2.98l11.47-.52c.44-10.86.6-56.06-4.17-68.78-.55-1.47.19-3.12,1.67-3.67,1.48-.54,3.12.19,3.67,1.67,4.67,12.44,6.53,72.18,3.6,75.46-.65.72-1.62,1.04-2.56.93l-13.41.61s-.09,0-.13,0Z"/>
          </g>
        </g>
        <g>
          <g>
            <rect class="cls-11" x="498.61" y="493.56" width="63.79" height="41.28" rx="2.06" ry="2.06" transform="translate(-208.18 501) rotate(-43.08)"/>
            <rect class="cls-11" x="519.6" y="453.75" width="135.83" height="14.26" transform="translate(-156.4 525.57) rotate(-43.08)"/>
          </g>
          <path class="cls-12" d="M562.39,469.91c19.51,6.76,42.74,1.1,56.95-13.89,3.58-3.77,6.68-8.25,7.54-13.38,1.58-9.44-4.64-18.24-10.51-25.8-25.27-2.73-51.6,8.01-67.74,27.64l13.76,25.42Z"/>
        </g>
      </g>
    </g>
  </g>
</svg>