<?xml version="1.0" encoding="UTF-8"?>
<svg id="Layer_1" data-name="Layer 1" xmlns="http://www.w3.org/2000/svg" viewBox="0 0 610.93 1080">
  <defs>
    <style>
      .cls-1 {
        fill: #232323;
      }

      .cls-2 {
        fill: #6d4900;
        opacity: .12;
      }

      .cls-3 {
        fill: #079307;
      }

      .cls-4 {
        fill: #fff;
      }

      .cls-5 {
        fill: #ffc031;
      }

      .cls-6 {
        fill: #f97070;
      }

      .cls-7 {
        fill: #81aefc;
      }

      .cls-8 {
        fill: #0da00d;
      }

      .cls-9 {
        fill: #172e36;
        opacity: .25;
      }

      .cls-10 {
        fill: #b25814;
      }

      .cls-11 {
        fill: #ffebca;
        opacity: .44;
      }

      .cls-12 {
        fill: #008400;
      }
    </style>
  </defs>
  <g>
    <g>
      <g>
        <path class="cls-5" d="M524.66,396.07v81.81c-7.36,54.36-20.42,101.93-39.03,143.19-55.83,123.77-161.57,190.75-312.94,213.9h-22.47c-51.7,0-98.28-16.78-108.14-75.46-1.71-10.15-2.31-21.55-1.66-34.34,2.17-42.32,2.05-92.36-4.44-148.07-5.96-51.14-15.93-96.83-27.15-136.24-16.32-57.38-9.87-118.97,18.4-171.5,10.94-20.34,25.58-41.09,45.13-60.65,47.95-47.95,114.19-77.6,187.35-77.6,36.58,0,71.43,7.41,103.13,20.82,40.84,17.27,76.44,44.49,103.78,78.62,36.32,45.35,58.04,102.89,58.04,165.51Z"/>
        <path class="cls-2" d="M481.29,250.76c16.6,34.63,25.9,73.43,25.9,114.4v81.81h0c-29.44,217.45-150.14,326.22-351.98,357.09h-22.47c-34.44,0-66.61-7.45-87.17-29.77,14.74,46.77,57.56,60.69,104.63,60.69h22.47c201.84-30.87,322.54-139.64,351.98-357.09h0v-81.81c0-53.65-15.95-103.58-43.36-145.31Z"/>
        <g>
          <path class="cls-12" d="M267.14,155.53h-4.62c-3.87,0-7.05-3.05-7.2-6.91-.89-22.17-.78-92.98,32.43-143.68.2-.31.18-.72-.06-1.01h0c-1.46-1.75.13-4.36,2.36-3.86l25.85,5.82c2.19.49,2.55,3.46.54,4.47l-3.65,1.83c-.11.05-.21.13-.28.23-2.42,3.03-41.6,53.42-38.17,135.61.17,4.1-3.1,7.52-7.2,7.52Z"/>
          <path class="cls-8" d="M610.93,189.22s-.01-.02-.02-.02c-.18-.28-1.49-2.19-3.89-5.1-.01-.02-.03-.04-.05-.06-12.58-15.23-54.99-57.46-125.57-37.61-85.37,24.01-209.26-56.79-209.26-56.79,0,0,0,0,0,0,187.53-183.34,337.78,97.7,338.78,99.6Z"/>
          <path class="cls-3" d="M606.98,184.03c-12.58-15.23-54.99-57.46-125.57-37.61-85.37,24.01-209.26-56.79-209.26-56.79,0,0,0,0,0,0,1.41-.32,222.03-49.77,334.83,94.41Z"/>
        </g>
        <path class="cls-11" d="M192.24,159.62S47.99,193.05,24.43,324.05C.88,455.06,151.02,167.4,192.24,159.62Z"/>
      </g>
      <g>
        <path class="cls-10" d="M203.47,1004.99c-1.75,2.09-63.29-.31-63.29-.31-13.4,0-24.27-10.87-24.27-24.27s10.87-24.27,24.27-24.27c7.98,0,15.04,3.87,19.46,9.82,4.42-.85,8.94-1.58,10.87-1.46,4.33.27,8.67-10.76,8.67-10.76l26.87,2.18s18.23,24.29-2.59,49.07Z"/>
        <path class="cls-10" d="M189.58,968.37h0c-2.99-.07-5.34-2.27-5.25-4.9l5.61-137.67c.08-2.63,2.57-4.71,5.56-4.63h0c2.99.07,5.34,2.27,5.25,4.9l-5.61,137.67c-.08,2.63-2.57,4.71-5.56,4.63Z"/>
        <path class="cls-10" d="M340.41,1004.99c1.75,2.09,63.29-.31,63.29-.31,13.4,0,24.27-10.87,24.27-24.27s-10.87-24.27-24.27-24.27c-7.98,0-15.04,3.87-19.46,9.82-4.42-.85-8.94-1.58-10.87-1.46-4.33.27-8.67-10.76-8.67-10.76l-26.87,2.18s-18.23,24.29,2.59,49.07Z"/>
        <path class="cls-10" d="M345.8,963.74l-5.62-188.4c-.08-2.63,2.27-4.83,5.25-4.9h0c2.99-.07,5.48,2,5.56,4.63l5.62,188.4c.08,2.63-2.27,4.83-5.25,4.9h0c-2.99.07-5.48-2-5.56-4.63Z"/>
      </g>
      <path class="cls-10" d="M478.86,562.09c2.84.93,4.41,3.98,3.48,6.82-2.33,7.11-5.23,14.62-8.85,22.31-17.07,36.4-53.75,83.69-131.75,104.69-2.92.77-5.9-.97-6.63-3.89l-.02-.07c-.7-2.85,1.03-5.73,3.86-6.49,59.53-15.98,101.47-49.22,124.75-98.83,3.4-7.24,6.13-14.34,8.33-21.07.93-2.85,3.98-4.4,6.83-3.47h0Z"/>
      <path class="cls-10" d="M284.27,651.29h0c-2.86,3.58-2.28,8.8,1.3,11.66l12.44,9.94c-1.53,1.47-2.87,3.16-4.02,5l-31.22-2.38c-4.57-.35-8.55,3.07-8.9,7.64h0c-.35,4.57,3.07,8.55,7.64,8.9l28.16,2.14c.03.93.1,1.88.22,2.82.02.14.05.28.07.42l-26.37,7.15c-4.42,1.2-7.03,5.75-5.83,10.18,1.2,4.42,5.75,7.03,10.18,5.83l28.85-7.82c.71.82,1.45,1.6,2.24,2.32l-8.91,9.63c-3.11,3.36-2.9,8.61.46,11.72h0c3.36,3.11,8.61,2.9,11.72-.46l13.34-14.43c.73-.02,1.45-.05,2.19-.14,13.57-1.67,23.06-15.29,21.2-30.43-1.6-13-11.05-22.86-22.28-24.34l-20.82-16.65c-3.58-2.86-8.8-2.28-11.66,1.3Z"/>
      <path class="cls-10" d="M49.89,559.25c-2.93.59-4.85,3.43-4.26,6.37,1.47,7.34,3.47,15.13,6.15,23.2,12.65,38.16,43.47,89.45,118.45,119.53,2.81,1.11,5.98-.26,7.05-3.08l.03-.07c1.04-2.75-.35-5.81-3.07-6.9-57.22-22.91-94.94-60.87-112.19-112.88-2.52-7.59-4.39-14.96-5.78-21.9-.59-2.94-3.43-4.84-6.37-4.26h0Z"/>
      <path class="cls-10" d="M232.56,670.84h0c2.42,3.89,1.22,9.01-2.67,11.42l-13.52,8.4c1.35,1.64,2.47,3.47,3.4,5.44l31.28,1.33c4.58.19,8.13,4.06,7.93,8.64h0c-.19,4.58-4.06,8.13-8.64,7.94l-28.21-1.2c-.14.92-.32,1.85-.55,2.78-.03.14-.08.27-.12.41l25.34,10.22c4.25,1.71,6.3,6.55,4.59,10.79-1.71,4.25-6.55,6.3-10.79,4.59l-27.72-11.18c-.8.73-1.63,1.42-2.5,2.04l7.7,10.62c2.69,3.71,1.87,8.89-1.84,11.58h0c-3.71,2.69-8.89,1.87-11.58-1.84l-11.54-15.91c-.72-.1-1.44-.23-2.15-.4-13.28-3.26-21.09-17.91-17.45-32.73,3.12-12.72,13.68-21.4,25-21.54l22.65-14.07c3.89-2.42,9.01-1.22,11.42,2.67Z"/>
    </g>
    <ellipse class="cls-9" cx="265.76" cy="1005.85" rx="265.42" ry="74.15"/>
  </g>
  <g>
    <g>
      <g>
        <g>
          <g>
            <circle class="cls-1" cx="157.91" cy="474.25" r="57.24"/>
            <path class="cls-1" d="M157.91,533.69c-32.78,0-59.44-26.67-59.44-59.44s26.67-59.44,59.44-59.44,59.44,26.67,59.44,59.44-26.67,59.44-59.44,59.44ZM157.91,419.22c-30.34,0-55.03,24.68-55.03,55.03s24.68,55.03,55.03,55.03,55.03-24.68,55.03-55.03-24.68-55.03-55.03-55.03Z"/>
          </g>
          <circle class="cls-4" cx="183.61" cy="458.56" r="28.55" transform="translate(-270.48 264.14) rotate(-45)"/>
          <circle class="cls-4" cx="133.87" cy="508.79" r="15.98"/>
        </g>
        <g>
          <g>
            <circle class="cls-1" cx="394.18" cy="474.25" r="57.24"/>
            <path class="cls-1" d="M394.18,533.69c-32.78,0-59.44-26.67-59.44-59.44s26.67-59.44,59.44-59.44,59.44,26.67,59.44,59.44-26.67,59.44-59.44,59.44ZM394.18,419.22c-30.34,0-55.03,24.68-55.03,55.03s24.68,55.03,55.03,55.03,55.03-24.68,55.03-55.03-24.68-55.03-55.03-55.03Z"/>
          </g>
          <circle class="cls-4" cx="419.87" cy="458.56" r="28.55" transform="translate(-122.9 761.84) rotate(-76.72)"/>
          <circle class="cls-4" cx="370.13" cy="508.79" r="15.98"/>
        </g>
      </g>
      <g>
        <ellipse class="cls-6" cx="117.89" cy="590.44" rx="46.11" ry="25.44"/>
        <path class="cls-7" d="M419.95,593.08c0,24.16-11.54,30.66-25.77,30.66s-25.77-6.5-25.77-30.66,25.77-56.83,25.77-56.83c0,0,25.77,32.67,25.77,56.83Z"/>
      </g>
    </g>
    <path d="M333.99,665.19c-1.03-4.51-3.45-8.73-7.92-12.2-4.41-3.47-10.43-6.22-17.22-8.39-13.66-4.31-30.16-6.38-46.33-6.53-16.22-.16-32.12,1.9-45.79,6.44-13.55,4.36-23.58,11.55-25.47,20.68-2.55-4.37-2.15-9.3,1.04-13.86,3.21-4.57,9.13-8.72,16.47-11.94,7.37-3.22,15.8-5.72,25.17-7.33,9.33-1.63,19.15-2.31,28.86-2.24,19.34.2,38.76,3.28,53.82,9.61,7.5,3.14,13.45,7.31,16.78,11.88,3.08,4.63,3.2,9.53.6,13.89Z"/>
  </g>
</svg>